<?xml version="1.0" encoding="UTF-8"?>
<!DOCTYPE svg PUBLIC "-//W3C//DTD SVG 1.1//EN" "http://www.w3.org/Graphics/SVG/1.1/DTD/svg11.dtd">
<svg xmlns="http://www.w3.org/2000/svg" version="1.1" width="1040px" height="1040px" style="shape-rendering:geometricPrecision; text-rendering:geometricPrecision; image-rendering:optimizeQuality; fill-rule:evenodd; clip-rule:evenodd" xmlns:xlink="http://www.w3.org/1999/xlink">
<g><path style="opacity:0.992" fill="#8054fe" d="M 459.5,296.5 C 452.992,296.592 452.992,297.258 459.5,298.5C 479.086,309.749 484.919,326.082 477,347.5C 475.127,349.709 472.96,351.542 470.5,353C 456.235,354.615 441.902,354.948 427.5,354C 417.342,351.842 411.176,345.676 409,335.5C 408.539,330.816 408.705,326.149 409.5,321.5C 411.273,320.686 411.773,319.352 411,317.5C 409.955,318.373 409.122,319.373 408.5,320.5C 393.377,330.735 382.544,344.402 376,361.5C 371.904,376.456 375.571,389.122 387,399.5C 387.667,400.167 387.667,400.833 387,401.5C 341.863,380.576 322.197,345.243 328,295.5C 332.781,262.949 345.448,233.949 366,208.5C 404.119,161.279 453.786,137.612 515,137.5C 613.695,138.912 677.362,186.579 706,280.5C 717.805,336.387 698.305,377.22 647.5,403C 646.5,403.667 645.5,403.667 644.5,403C 663.448,388.138 666.948,370.305 655,349.5C 647.598,337.763 638.431,327.597 627.5,319C 626.833,318.333 626.167,318.333 625.5,319C 631.387,335.34 626.387,347.006 610.5,354C 596.5,354.667 582.5,354.667 568.5,354C 559.326,349.667 554.992,342.334 555.5,332C 556.8,315.706 564.8,304.039 579.5,297C 539.49,287.425 499.49,287.259 459.5,296.5 Z"/></g>
<g><path style="opacity:1" fill="#7b7798" d="M 459.5,296.5 C 459.5,297.167 459.5,297.833 459.5,298.5C 452.992,297.258 452.992,296.592 459.5,296.5 Z"/></g>
<g><path style="opacity:0.791" fill="#797892" d="M 409.5,321.5 C 408.833,321.5 408.5,321.167 408.5,320.5C 409.122,319.373 409.955,318.373 411,317.5C 411.773,319.352 411.273,320.686 409.5,321.5 Z"/></g>
<g><path style="opacity:0.911" fill="#8054ff" d="M 556.5,378.5 C 559.57,381.627 561.904,385.294 563.5,389.5C 554.693,394.935 545.026,398.102 534.5,399C 514.774,401.392 496.774,397.059 480.5,386C 480.667,385.5 480.833,385 481,384.5C 507.313,396.037 532.48,394.037 556.5,378.5 Z"/></g>
<g><path style="opacity:0.996" fill="#8155fe" d="M 333.5,433.5 C 336.187,433.336 338.854,433.503 341.5,434C 399.283,449.606 458.116,456.439 518,454.5C 579.732,456.345 640.399,449.345 700,433.5C 706.111,433.444 709.611,436.444 710.5,442.5C 702.644,509.345 693.478,576.011 683,642.5C 672.786,702.477 653.786,759.477 626,813.5C 611.705,841.912 591.872,865.745 566.5,885C 528.044,908.346 492.044,905.013 458.5,875C 435.675,852.838 417.508,827.338 404,798.5C 372.657,730.135 352.99,658.468 345,583.5C 338.923,538.551 333.256,493.551 328,448.5C 327.333,444.833 327.333,441.167 328,437.5C 329.812,436.023 331.645,434.69 333.5,433.5 Z"/></g>
<g><path style="opacity:1" fill="#c9c4cf" d="M 477.5,548.5 C 482.167,548.5 486.833,548.5 491.5,548.5C 491.5,549.833 491.5,551.167 491.5,552.5C 488.167,552.5 484.833,552.5 481.5,552.5C 481.5,554.167 481.5,555.833 481.5,557.5C 484.5,557.5 487.5,557.5 490.5,557.5C 490.5,558.5 490.5,559.5 490.5,560.5C 487.5,560.5 484.5,560.5 481.5,560.5C 481.5,562.5 481.5,564.5 481.5,566.5C 484.833,566.5 488.167,566.5 491.5,566.5C 491.5,567.833 491.5,569.167 491.5,570.5C 486.833,570.5 482.167,570.5 477.5,570.5C 477.5,563.167 477.5,555.833 477.5,548.5 Z"/></g>
<g><path style="opacity:1" fill="#c8c4cf" d="M 502.5,548.5 C 504.288,548.215 505.955,548.548 507.5,549.5C 508.414,551.664 509.581,553.664 511,555.5C 512.5,553.333 514,551.167 515.5,549C 517.167,548.333 518.833,548.333 520.5,549C 518.242,552.184 516.242,555.517 514.5,559C 516.34,562.838 518.006,566.671 519.5,570.5C 518.127,570.657 516.793,570.49 515.5,570C 514.37,567.572 512.87,565.405 511,563.5C 509.581,565.336 508.414,567.336 507.5,569.5C 505.833,570.833 504.167,570.833 502.5,569.5C 504.5,566.167 506.5,562.833 508.5,559.5C 506.221,555.939 504.221,552.273 502.5,548.5 Z"/></g>
<g><path style="opacity:1" fill="#cccacc" d="M 532.5,548.5 C 533.833,548.5 535.167,548.5 536.5,548.5C 536.5,555.833 536.5,563.167 536.5,570.5C 535.167,570.5 533.833,570.5 532.5,570.5C 532.5,563.167 532.5,555.833 532.5,548.5 Z"/></g>
<g><path style="opacity:1" fill="#c8c3cf" d="M 550.5,548.5 C 552.39,548.297 553.89,548.963 555,550.5C 557.084,554.336 559.417,558.003 562,561.5C 562.499,557.179 562.666,552.846 562.5,548.5C 564.167,548.5 565.833,548.5 567.5,548.5C 567.5,555.833 567.5,563.167 567.5,570.5C 565.533,570.739 563.699,570.406 562,569.5C 559.584,564.999 556.917,560.666 554,556.5C 553.501,561.155 553.334,565.821 553.5,570.5C 552.167,570.5 550.833,570.5 549.5,570.5C 549.203,563.08 549.536,555.746 550.5,548.5 Z"/></g>
</svg>
